<?xml version="1.0" encoding="UTF-8"?>
<!-- Generator: Adobe Illustrator 25.1.0, SVG Export Plug-In . SVG Version: 6.00 Build 0)  -->
<svg version="1.1" id="Layer_1" xmlns="http://www.w3.org/2000/svg" xmlns:xlink="http://www.w3.org/1999/xlink" x="0px" y="0px" viewBox="0 0 298.7 118.65" style="enable-background:new 0 0 298.7 118.65;" xml:space="preserve">
<style type="text/css">
	.st0{fill:#C2D500;}
	.st1{fill:#000000;}
</style>
<g>
	<path class="st0" d="M264.47,71.82c0.27-0.96,1.27-1.51,2.23-1.24l7.8,2.23c0.96,0.27,1.51,1.27,1.24,2.23l-2.23,7.8   c-0.27,0.96-1.27,1.51-2.23,1.24l-7.8-2.23c-0.96-0.27-1.51-1.27-1.24-2.23L264.47,71.82z"/>
	<path class="st1" d="M232.14,65.1c0,2.81,0.81,5.17,2.43,7.06c1.62,1.84,3.68,2.76,6.17,2.76c2.6,0,4.68-0.92,6.25-2.76   c1.62-1.84,2.43-4.19,2.43-7.06c0-2.87-0.81-5.22-2.43-7.06c-1.57-1.84-3.65-2.76-6.25-2.76c-2.49,0-4.54,0.95-6.17,2.84   C232.95,59.96,232.14,62.29,232.14,65.1z M220.7,65.02c0-3.62,0.84-6.87,2.52-9.74c1.73-2.87,4.14-5.11,7.22-6.74   c3.14-1.68,6.68-2.52,10.63-2.52c3.95,0,7.41,0.84,10.39,2.52c3.03,1.62,5.36,3.87,6.98,6.74c1.62,2.87,2.43,6.11,2.43,9.74   s-0.81,6.9-2.43,9.82c-1.62,2.92-3.95,5.22-6.98,6.9c-2.98,1.62-6.49,2.43-10.55,2.43c-3.95,0-7.47-0.76-10.55-2.27   c-3.03-1.57-5.41-3.79-7.14-6.65C221.54,72.38,220.7,68.97,220.7,65.02z M198.3,74.6c2.27,0,4.17-0.43,5.68-1.3   c1.51-0.92,2.76-2.27,3.73-4.06v-8.68c-0.65-1.73-1.81-3.11-3.49-4.14c-1.68-1.03-3.65-1.54-5.92-1.54c-2.54,0-4.76,0.92-6.65,2.76   c-1.84,1.84-2.76,4.17-2.76,6.98c0,1.84,0.43,3.54,1.3,5.11c0.87,1.51,2,2.7,3.41,3.57C195.05,74.16,196.62,74.6,198.3,74.6z    M219.07,19.17V83.2h-11.36v-3.73c-4.11,3.14-8.49,4.71-13.15,4.71c-3.3,0-6.25-0.78-8.85-2.35s-4.65-3.81-6.17-6.74   c-1.46-2.92-2.19-6.36-2.19-10.31c0-3.9,0.78-7.25,2.35-10.06c1.62-2.87,3.84-5.03,6.65-6.49c2.81-1.51,6.03-2.27,9.66-2.27   c2.33,0,4.52,0.38,6.57,1.14c2.06,0.7,3.79,1.76,5.19,3.16V19.17H219.07z M156.94,54.88c-2.54,0-4.57,0.87-6.09,2.6   c-1.51,1.73-2.27,4.06-2.27,6.98v0.73l15.58-5.27C163.02,56.55,160.61,54.88,156.94,54.88z M157.83,74.51   c2.27,0,4.63-0.78,7.06-2.35l5.03,8.44c-1.95,1.08-4,1.95-6.17,2.6c-2.16,0.65-4.22,0.97-6.17,0.97c-4.22,0-7.87-0.78-10.96-2.35   c-3.03-1.62-5.33-3.87-6.9-6.74c-1.57-2.92-2.35-6.25-2.35-9.98c0-3.46,0.89-6.65,2.68-9.58c1.84-2.92,4.33-5.22,7.47-6.9   c3.14-1.73,6.57-2.6,10.31-2.6c5.09,0,9.25,1.49,12.5,4.46c3.3,2.98,5.44,7.22,6.41,12.74l-25.97,8.28   C152.5,73.51,154.85,74.51,157.83,74.51z M138.72,80.03c-1.57,1.24-3.54,2.25-5.92,3c-2.33,0.76-4.63,1.14-6.9,1.14   c-6.17,0-11.06-1.65-14.69-4.95c-3.57-3.35-5.36-7.95-5.36-13.8c0-3.79,0.87-7.09,2.6-9.9c1.79-2.87,4.11-5.03,6.98-6.49   c2.87-1.51,5.95-2.27,9.25-2.27c5.9,0,10.68,1.57,14.36,4.71l-5.52,7.3c-2.33-1.84-4.92-2.76-7.79-2.76   c-2.38,0-4.41,0.89-6.09,2.68c-1.62,1.79-2.43,4.03-2.43,6.74c0,2.7,0.89,4.98,2.68,6.82c1.79,1.79,4.11,2.68,6.98,2.68   c2.49,0,4.54-0.68,6.17-2.03L138.72,80.03z M107.19,80.03c-1.57,1.24-3.54,2.25-5.92,3c-2.33,0.76-4.63,1.14-6.9,1.14   c-6.17,0-11.06-1.65-14.69-4.95c-3.57-3.35-5.36-7.95-5.36-13.8c0-3.79,0.87-7.09,2.6-9.9c1.79-2.87,4.11-5.03,6.98-6.49   c2.87-1.51,5.95-2.27,9.25-2.27c5.9,0,10.68,1.57,14.36,4.71l-5.52,7.3c-2.33-1.84-4.92-2.76-7.79-2.76   c-2.38,0-4.41,0.89-6.09,2.68c-1.62,1.79-2.43,4.03-2.43,6.74c0,2.7,0.89,4.98,2.68,6.82c1.79,1.79,4.11,2.68,6.98,2.68   c2.49,0,4.54-0.68,6.17-2.03L107.19,80.03z"/>
	<path class="st0" d="M52.72,74.92c3.95,0,6.82-1.79,8.6-5.36v-8.68c-0.65-1.73-1.79-3.11-3.41-4.14c-1.57-1.03-3.44-1.54-5.6-1.54   c-2.49,0-4.63,0.92-6.41,2.76c-1.73,1.84-2.6,4.17-2.6,6.98c0,1.84,0.43,3.54,1.3,5.11c0.87,1.51,2,2.7,3.41,3.57   C49.47,74.49,51.04,74.92,52.72,74.92z M72.68,47.74V83.2H61.32v-4.38c-3.41,3.57-7.36,5.36-11.85,5.36   c-5.25,0-9.52-1.57-12.82-4.71c-3.25-3.14-4.87-7.79-4.87-13.96c0-3.9,0.78-7.3,2.35-10.22c1.62-2.98,3.76-5.27,6.41-6.9   c2.65-1.62,5.49-2.43,8.52-2.43c3.14,0,5.63,0.49,7.47,1.46c1.84,0.92,3.46,2.25,4.87,3.98l0.73-3.65H72.68z"/>
</g>
</svg>